<?xml version="1.0" standalone="no"?>
<!DOCTYPE svg PUBLIC "-//W3C//DTD SVG 20010904//EN"
 "http://www.w3.org/TR/2001/REC-SVG-20010904/DTD/svg10.dtd">
<svg version="1.0" xmlns="http://www.w3.org/2000/svg"
 width="179.000000pt" height="177.000000pt" viewBox="0 0 179.000000 177.000000"
 preserveAspectRatio="xMidYMid meet">
<metadata>
Created by potrace 1.16, written by Peter Selinger 2001-2019
</metadata>
<g transform="translate(0.000000,177.000000) scale(0.100000,-0.100000)"
fill="#000000" stroke="none">
<path d="M605 1621 c-140 -32 -216 -75 -261 -151 -24 -39 -29 -59 -50 -175 -7
-44 -18 -100 -23 -125 -11 -48 -15 -838 -5 -864 3 -9 16 -16 28 -16 36 0 53
-22 59 -73 6 -65 45 -107 98 -107 21 0 44 3 53 6 25 10 60 75 66 124 l5 45
315 3 c355 3 340 6 340 -74 0 -62 42 -104 103 -104 63 0 92 28 112 104 15 61
26 76 57 76 10 0 22 9 29 21 15 28 6 867 -10 924 -6 22 -15 69 -21 104 -25
152 -108 233 -286 277 -106 27 -500 30 -609 5z m552 -113 c13 -12 23 -30 23
-40 0 -17 -16 -18 -290 -18 -283 0 -290 0 -290 20 0 11 9 29 20 40 19 19 33
20 267 20 240 0 247 -1 270 -22z m160 -170 c13 -16 21 -51 38 -163 7 -49 18
-113 25 -142 6 -28 10 -69 8 -90 l-3 -38 -486 -3 c-382 -2 -489 1 -497 10 -9
13 -7 37 31 314 6 50 18 98 26 108 12 14 55 16 431 16 322 0 420 -3 427 -12z
m-790 -760 c29 -27 29 -65 1 -95 -26 -28 -65 -29 -95 -4 -29 24 -30 68 -1 98
27 29 65 29 95 1z m872 -7 c26 -37 26 -52 0 -85 -39 -49 -129 -20 -129 43 0
67 91 96 129 42z"/>
</g>
</svg>
