<?xml version="1.0" encoding="UTF-8" standalone="no" ?>
<!DOCTYPE svg PUBLIC "-//W3C//DTD SVG 1.1//EN" "http://www.w3.org/Graphics/SVG/1.1/DTD/svg11.dtd">
<svg xmlns="http://www.w3.org/2000/svg" xmlns:xlink="http://www.w3.org/1999/xlink" version="1.1" width="280" height="360" viewBox="0 0 280 360" xml:space="preserve">
<desc>Created with Fabric.js 3.6.6</desc>
<defs>
</defs>
<g transform="matrix(0.28 0 0 0.28 139.46 184.93)"  >
<g style=""   >
		<g transform="matrix(0.07 0 0 -0.07 30.58 -238.53)"  >
<path style="stroke: none; stroke-width: 1; stroke-dasharray: none; stroke-linecap: butt; stroke-dashoffset: 0; stroke-linejoin: miter; stroke-miterlimit: 4; fill: rgb(255,255,255); fill-rule: nonzero; opacity: 1;"  transform=" translate(-6516.13, -8075.66)" d="M 7565 10229 c -565 -43 -1456 -231 -1770 -374 c -87 -39 -105 -61 -223 -259 c -307 -516 -939 -1800 -1164 -2366 c -43 -109 -107 -228 -134 -249 c -35 -28 -414 -87 -506 -79 l -37 3 l 19 53 c 95 268 804 1525 1277 2262 c 191 299 283 448 283 463 c 0 15 -51 1 -182 -52 c -378 -151 -850 -383 -1208 -592 c -636 -371 -1226 -778 -1207 -832 c 6 -17 163 -11 467 18 c 218 21 417 36 924 72 l 89 6 l -96 -184 c -52 -101 -147 -278 -209 -394 l -114 -209 l -140 -18 c -76 -9 -209 -29 -294 -43 c -626 -106 -1763 -342 -1833 -381 c -50 -28 -544 -695 -694 -937 c -65 -105 -118 -215 -109 -224 c 3 -4 194 55 424 130 c 439 144 668 213 972 296 c 1392 376 2829 602 4200 661 c 301 13 1134 13 1445 0 c 702 -29 1231 -93 1915 -230 c 830 -167 1859 -500 2444 -792 c 96 -48 141 -66 146 -58 c 10 16 50 266 50 308 c 0 49 -23 95 -66 131 c -22 18 -122 73 -224 123 c -1198 586 -2560 960 -4090 1123 c -613 65 -967 79 -1750 71 c -581 -6 -837 -14 -1148 -37 c -84 -6 -155 -9 -158 -6 c -6 6 44 121 183 425 l 116 252 l 231 0 c 1659 0 3599 -363 5009 -936 c 572 -233 1321 -615 1795 -916 c 68 -43 126 -78 129 -78 c 3 0 3 181 0 403 c -5 403 -11 491 -52 709 c -89 475 -338 997 -663 1392 c -100 121 -324 343 -442 437 c -497 397 -1089 663 -1820 818 c -219 46 -423 72 -730 91 c -192 12 -894 11 -1055 -1 z" stroke-linecap="round" />
</g>
		<g transform="matrix(0.07 0 0 -0.07 3.28 107.56)"  >
<path style="stroke: none; stroke-width: 1; stroke-dasharray: none; stroke-linecap: butt; stroke-dashoffset: 0; stroke-linejoin: miter; stroke-miterlimit: 4; fill: rgb(255,255,255); fill-rule: nonzero; opacity: 1;"  transform=" translate(-6112.61, -3274.01)" d="M 7595 6543 c -681 -32 -1214 -92 -1990 -223 c -1478 -250 -3341 -809 -4756 -1428 c -164 -72 -724 -328 -737 -338 c -7 -4 -81 -412 -94 -514 c -9 -75 -13 -246 -13 -600 c 0 -548 2 -567 70 -825 c 150 -571 395 -1008 800 -1424 c 510 -524 1173 -876 2003 -1062 c 362 -80 813 -129 1205 -129 c 142 0 169 2 174 15 c 7 21 2 25 -47 36 c -92 21 -446 207 -655 344 c -297 195 -603 543 -767 870 c -95 189 -181 455 -227 705 c -60 318 -65 778 -15 1205 c 72 614 266 1349 560 2124 c 41 107 75 195 77 197 c 3 4 366 103 561 154 c 83 22 152 37 155 34 c 10 -9 -29 -207 -100 -508 c -160 -684 -201 -967 -215 -1486 c -7 -266 6 -601 31 -764 c 32 -211 90 -391 200 -623 c 157 -330 364 -603 632 -835 c 432 -373 829 -560 1332 -628 c 233 -31 636 -29 904 4 c 1022 129 2230 687 3256 1504 c 759 604 1420 1421 1851 2287 c 134 270 214 467 327 803 c 98 295 119 393 93 441 c -45 86 -926 339 -1685 485 c -430 83 -976 152 -1389 176 c -154 9 -1371 11 -1541 3 z" stroke-linecap="round" />
</g>
</g>
</g>
</svg>