<?xml version="1.0" encoding="utf-8"?>
<svg version="1.0" width="1488.000000pt" height="1488pt" viewBox="0 0 1488 1488" preserveAspectRatio="xMidYMid meet" xmlns="http://www.w3.org/2000/svg">
  <g transform="matrix(0.086458, 0, 0, -0.060049, 91.699806, 1351.609985)" fill="#000000" stroke="none" style="">
    <path d="M3620 20459 c-806 -90 -1513 -491 -1983 -1122 -283 -380 -444 -764 -524 -1249 -16 -96 -18 -457 -21 -5328 -2 -3749 0 -5248 8 -5305 33 -240 158 -543 373 -900 127 -212 558 -861 652 -980 206 -263 370 -407 590 -517 140 -71 287 -118 487 -158 l57 -11 -586 -880 -586 -879 -514 0 -513 0 0 -290 0 -290 320 0 320 0 -130 -195 -130 -195 -565 0 -565 0 0 -132 c0 -73 3 -204 7 -290 l6 -158 364 -2 363 -3 -105 -157 -105 -158 -400 0 -400 0 0 -290 0 -290 205 -2 205 -3 -225 -338 -225 -337 952 0 953 1 233 343 233 343 3032 6 c1668 4 3941 10 5052 13 l2020 7 240 -353 c131 -194 244 -354 250 -356 5 -2 434 -3 953 -2 l942 3 -235 352 c-129 194 -235 355 -235 358 0 3 104 5 230 5 l230 0 0 285 0 285 -423 0 -424 0 -116 175 -117 175 430 0 430 0 0 208 c0 114 -3 245 -7 291 l-6 84 -614 -6 -614 -6 -109 165 -110 164 295 0 295 0 0 290 0 290 -488 0 -489 0 -587 881 c-323 485 -586 883 -584 885 3 2 47 15 99 28 341 89 650 320 999 748 145 177 624 818 727 972 157 235 261 466 309 686 18 82 19 251 19 5370 0 4382 -2 5300 -13 5375 -93 618 -358 1145 -796 1580 -155 155 -254 236 -434 356 -338 224 -702 365 -1142 442 l-125 22 -3780 1 c-2079 1 -3814 -2 -3855 -7z m5343 -607 c124 -50 229 -156 279 -281 22 -55 23 -66 26 -511 2 -315 0 -473 -8 -515 -32 -164 -145 -296 -309 -359 l-56 -21 -1415 -3 c-948 -2 -1438 1 -1485 8 -200 30 -363 191 -394 390 -14 86 -14 845 0 930 28 178 173 332 352 376 41 10 364 12 1502 11 l1450 -2 58 -23z m2172 -2269 c576 -113 963 -501 1082 -1088 17 -86 18 -207 18 -2530 l0 -2440 -23 -105 c-130 -589 -579 -988 -1192 -1060 -69 -8 -1072 -10 -3650 -8 l-3555 3 -100 23 c-293 67 -518 185 -701 367 -187 186 -300 397 -367 687 l-21 93 -4 2380 c-2 1715 0 2407 8 2475 30 255 116 489 251 680 108 154 294 313 467 399 132 66 334 122 507 140 44 5 1675 8 3625 7 l3545 -2 110 -21z m-7095 -8158 c615 -100 1072 -666 1037 -1284 -26 -446 -279 -837 -673 -1038 -188 -96 -351 -136 -559 -137 -149 0 -240 13 -375 56 -195 62 -355 161 -505 312 -181 181 -288 381 -341 636 -25 118 -25 353 0 470 110 512 501 892 1011 984 107 19 289 19 405 1z m7160 -15 c246 -60 445 -174 618 -354 224 -233 343 -526 343 -845 0 -240 -51 -435 -166 -631 -349 -594 -1104 -792 -1695 -445 -313 184 -532 501 -595 862 -19 111 -19 304 1 416 91 521 514 935 1039 1017 100 15 357 4 455 -20z m-467 -6145 l98 -145 -3400 0 -3401 0 77 113 c42 61 87 127 100 145 l24 32 3202 0 3202 0 98 -145z m-1063 -725 l1557 0 111 -162 c61 -90 108 -165 106 -168 -6 -5 -8047 -40 -8052 -35 -2 2 54 88 124 191 l129 187 2234 -6 c1229 -4 2935 -7 3791 -7z m2292 -1077 l115 -168 -706 -6 c-388 -3 -2483 -10 -4655 -14 l-3949 -8 108 159 c60 88 110 161 111 163 3 3 6557 34 8390 40 l472 1 114 -167z"/>
  </g>
</svg>